<svg viewBox="0 0 3003 1402" fill="none" xmlns="http://www.w3.org/2000/svg"><g clip-path="url(#a)"><path d="M1501.76 1403.44H8.26c-1.75 0-3.52-.11-5.25.03-1.31.11-1.67-.23-1.54-1.54.14-1.48.03-3 .03-4.5V7.51c0-1.5.11-3.02-.03-4.5C1.34 1.7 1.7 1.36 3 1.47c1.74.14 3.5.03 5.25.03h2988.5c1.75 0 3.51.11 5.25-.03 1.3-.11 1.67.22 1.54 1.53-.15 1.49-.03 3-.03 4.5v1389.93c0 1.5-.12 3.01.03 4.5.13 1.3-.22 1.64-1.53 1.55-2-.15-4-.04-6-.04H1501.75h.01Z" fill="#fff"/><path d="M2364.01 641.43c-81.82 0-148.28 66.7-148.28 148.75 0 82.04 66.46 148.75 148.28 148.75 81.82 0 148.27-66.7 148.27-148.75s-66.45-148.75-148.27-148.75Zm0 17.83c71.81 0 130.41 58.5 130.41 130.92 0 72.06-58.6 130.91-130.41 130.91-71.82 0-130.42-58.5-130.42-130.91s58.6-130.92 130.42-130.92Z" fill="#2E5BDC"/><path d="M2352.22 713.84c0 2.5-.36 4.64-1.43 6.78a14.17 14.17 0 0 1-3.58 5.35 14.09 14.09 0 0 1-5.36 3.57 14 14 0 0 1-6.43 1.42c-2.5 0-4.64-.35-6.43-1.42-1.78-1.07-3.93-2.14-5.36-3.57a14.04 14.04 0 0 1-3.57-5.35c-.72-2.14-1.43-4.28-1.43-6.78s.36-4.64 1.43-6.78a14.05 14.05 0 0 1 3.57-5.35 14.19 14.19 0 0 1 5.36-3.56c2.15-.72 4.29-1.43 6.43-1.43a14 14 0 0 1 6.43 1.43 19.96 19.96 0 0 1 5.36 3.56 14.18 14.18 0 0 1 3.58 5.35 16.55 16.55 0 0 1 1.43 6.78Zm-38.23 32.46h32.87v105.95c0 6.06-1.79 10.7-5.01 13.91-3.21 2.85-7.5 4.64-12.86 4.64h-41.8v-21.4h32.15c3.58 0 5.36-2.15 5.36-6.07v-75.62h-10.36v-21.4h-.35Zm75.03 24.97c0 2.86 1.43 5 4.28 6.07 2.86 1.07 8.22 2.14 16.08 3.2 8.94 1.08 16.44 3.58 22.16 8.21 5.71 4.64 8.57 10.7 8.57 18.55v1.07c0 8.92-3.22 15.7-9.65 21.05-6.43 5.35-15.36 7.85-27.15 7.85-6.79 0-12.86-1.07-17.51-2.86-4.64-1.78-8.93-3.92-12.15-6.78-3.21-2.85-5.71-5.7-7.5-8.91a34.88 34.88 0 0 1-3.57-9.63l20.72-6.78a19.54 19.54 0 0 0 6.07 9.99c2.86 2.85 7.86 4.28 13.94 4.28 5.72 0 9.29-.72 11.43-2.5 2.15-1.79 3.22-3.57 3.22-5.7 0-1.08-.36-2.15-.72-3.22-.35-1.07-1.43-1.78-2.85-2.85a12.02 12.02 0 0 0-5.72-2.14c-2.5-.72-5.36-1.07-9.29-1.43-10.01-.71-17.87-3.57-23.94-7.85-5.72-4.28-8.93-10.7-8.93-19.26v-1.07a26 26 0 0 1 2.86-11.77 28.08 28.08 0 0 1 7.5-8.56c3.21-2.5 6.79-3.93 10.72-5.35a48.13 48.13 0 0 1 12.5-1.79c5.72 0 10.36.72 14.65 2.14a40.25 40.25 0 0 1 10.36 5.35 26.86 26.86 0 0 1 6.79 7.5c1.79 2.85 3.22 5.34 3.93 7.84l-20.36 8.2a14.6 14.6 0 0 0-5.36-7.48c-2.5-1.79-6.08-2.86-10.01-2.86-3.93 0-6.79.72-8.57 2.14-1.43 1.43-2.5 3.21-2.5 5.35ZM2027.79 640.36c-81.82 0-148.27 66.7-148.27 148.75 0 82.04 66.45 148.75 148.27 148.75h148.28v-297.5h-148.28Zm130.77 78.12c-13.57-25.33-34.65-46.37-60.02-60.29h60.02v60.29Zm-261.18 70.63c0-72.06 58.6-130.92 130.41-130.92 71.82 0 130.42 58.5 130.42 130.92 0 72.06-58.6 130.91-130.42 130.91-71.81-.35-130.41-58.85-130.41-130.91Zm200.8 130.56c25.37-13.91 46.45-34.6 60.03-60.29v60.29h-60.03ZM1693.37 641.43h-.72V462h-150.06v474.43H1668a150.16 150.16 0 0 0 25.72 2.14c81.82 0 148.28-66.7 148.28-148.75 0-81.69-66.46-148.4-148.63-148.4Zm-18.58-161.6V642.5a148.01 148.01 0 0 0-114.34 81.69V479.84h114.34ZM1545.45 795.9v-5.71a15.19 15.19 0 0 0 0 5.7Zm15 122.7v-62.77c12.87 26.4 33.59 48.15 58.6 62.78h-58.6Zm132.92 2.15c-71.82 0-130.42-58.86-130.42-130.92 0-72.05 58.6-130.91 130.42-130.91 71.81 0 130.41 58.5 130.41 130.91.36 72.42-58.24 130.92-130.41 130.92ZM1345.36 640.36h-148.27v297.5h148.27V789.11h148.28c0-82.05-66.46-148.75-148.28-148.75Zm-17.86 130.91v148.75h-112.91V658.2h112.91v113.08Zm17.86-113.08c66.1 0 120.77 49.23 129.34 113.08h-129.34V658.2ZM1121.34 789.1c0-6.77-.36-13.19-1.43-19.61V640.36h-147.2c-81.83 0-148.28 66.7-148.28 148.75 0 82.04 66.46 148.75 148.28 148.75h6.43-6.43 147.2V808.37c.72-6.42 1.43-12.84 1.43-19.26Zm-19.29-73.12a149.49 149.49 0 0 0-58.6-57.79h58.6V716Zm-259.76 73.13c0-72.06 58.6-130.92 130.42-130.92 71.81 0 130.41 58.5 130.41 130.92 0 72.06-58.6 130.91-130.41 130.91-71.82 0-130.42-58.85-130.42-130.91Zm141.13 148.04h-1.78 1.78Zm118.63-17.48h-58.6a147.23 147.23 0 0 0 58.6-57.8v57.8ZM635.06 640.36V462H485v474.43h129.7c6.07.72 12.15 1.07 18.58 1.07 81.82 0 148.27-66.7 148.27-148.75 0-81.33-65.38-147.32-146.49-148.4ZM617.2 479.84v161.59a147.94 147.94 0 0 0-114.34 77.05V479.84H617.2ZM485 782.69v12.84-12.84Zm17.87 135.9v-58.85c13.22 24.61 33.58 44.94 57.88 58.86h-57.88Zm130.4 1.08c-71.8 0-130.4-58.5-130.4-130.56 0-72.41 58.6-130.92 130.4-130.92 71.82 0 130.42 58.5 130.42 130.92.36 72.06-58.24 130.56-130.41 130.56Z" fill="#2E5BDC"/></g><defs><clipPath id="a"><path fill="#fff" d="M0 0h3002.01v1401.19H0z"/></clipPath></defs></svg>