<svg xmlns="http://www.w3.org/2000/svg" fill="none" viewBox="0 0 1500 700"><path fill="#2E5BDC" d="M1182.57 320.59c-40.87 0-74.07 33.3-74.07 74.27 0 40.96 33.2 74.26 74.07 74.26 40.87 0 74.06-33.3 74.06-74.26 0-40.97-33.19-74.27-74.06-74.27Zm0 8.9c35.87 0 65.14 29.2 65.14 65.37 0 35.97-29.27 65.36-65.14 65.36-35.88 0-65.15-29.21-65.15-65.36 0-36.16 29.27-65.37 65.15-65.37Z"/><path fill="#2E5BDC" d="M1176.68 356.74c0 1.25-.18 2.32-.72 3.39a6.97 6.97 0 0 1-1.79 2.67c-.74.79-1.65 1.4-2.67 1.78a7 7 0 0 1-3.21.7 6.17 6.17 0 0 1-3.22-.7c-.89-.53-1.96-1.07-2.67-1.78a6.96 6.96 0 0 1-1.79-2.67 10.32 10.32 0 0 1-.71-3.39c0-1.25.18-2.32.71-3.38a6.96 6.96 0 0 1 1.79-2.68 7.07 7.07 0 0 1 2.67-1.77c1.08-.36 2.15-.72 3.22-.72a7 7 0 0 1 3.21.72 9.96 9.96 0 0 1 2.67 1.77c.8.75 1.41 1.66 1.79 2.68.48 1.06.72 2.21.72 3.38Zm-19.1 16.2H1174v52.9c0 3.03-.89 5.35-2.5 6.95a9.44 9.44 0 0 1-6.43 2.32h-20.88v-10.69h16.06c1.79 0 2.68-1.07 2.68-3.03v-37.75h-5.17v-10.69h-.18Zm37.48 12.47c0 1.43.71 2.5 2.14 3.03 1.43.54 4.1 1.07 8.03 1.6 4.46.54 8.21 1.79 11.07 4.1 2.85 2.32 4.28 5.34 4.28 9.26v.54c0 4.45-1.61 7.84-4.82 10.5-3.21 2.68-7.67 3.93-13.56 3.93a24.9 24.9 0 0 1-8.75-1.43 19.82 19.82 0 0 1-6.07-3.39 17.19 17.19 0 0 1-3.74-4.44 17.58 17.58 0 0 1-1.79-4.81l10.35-3.39a9.8 9.8 0 0 0 3.03 4.99c1.43 1.42 3.93 2.14 6.97 2.14 2.85 0 4.64-.36 5.71-1.25 1.07-.9 1.6-1.78 1.6-2.85 0-.54-.18-1.07-.36-1.6-.17-.54-.71-.9-1.42-1.43a5.99 5.99 0 0 0-2.86-1.07 25.17 25.17 0 0 0-4.64-.71c-5-.36-8.92-1.78-11.95-3.92-2.86-2.14-4.46-5.34-4.46-9.62v-.53c0-2.04.49-4.06 1.42-5.88a14.1 14.1 0 0 1 3.75-4.27c1.6-1.25 3.39-1.96 5.35-2.67a24.16 24.16 0 0 1 13.57.17c1.84.64 3.58 1.54 5.17 2.67a13.32 13.32 0 0 1 3.39 3.75c.9 1.42 1.61 2.67 1.97 3.91l-10.17 4.1a7.33 7.33 0 0 0-2.68-3.74 8.71 8.71 0 0 0-5-1.43c-1.96 0-3.39.36-4.28 1.07a3.76 3.76 0 0 0-1.25 2.67Zm-180.44-65.36c-40.87 0-74.06 33.3-74.06 74.27 0 40.96 33.2 74.27 74.06 74.27h74.07V320.05h-74.07Zm65.32 39a74.84 74.84 0 0 0-29.98-30.1h29.98v30.1Zm-130.46 35.27c0-35.98 29.27-65.37 65.14-65.37 35.88 0 65.15 29.21 65.15 65.37 0 35.98-29.27 65.36-65.15 65.36-35.87-.17-65.13-29.38-65.13-65.36Zm100.3 65.19a73.81 73.81 0 0 0 29.99-30.1v30.1h-29.99Zm-202.2-138.92h-.36V231h-74.95v236.88h62.64c4.24.72 8.54 1.08 12.85 1.06 40.87 0 74.06-33.3 74.06-74.26 0-40.8-33.2-74.1-74.24-74.1Zm-9.28-80.69v81.22a73.95 73.95 0 0 0-57.11 40.79v-122h57.11Zm-64.6 157.81v-2.85a7.6 7.6 0 0 0 0 2.85Zm7.49 29.92a74.2 74.2 0 0 0 29.27 31.35h-29.27v-31.35Zm66.4 32.42c-35.88 0-65.15-29.39-65.15-65.37 0-35.97 29.27-65.36 65.14-65.36 35.87 0 65.14 29.2 65.14 65.36.18 36.16-29.09 65.37-65.14 65.37Zm-173.84-140h-74.06V468.6h74.06v-74.27h74.07c0-40.96-33.2-74.27-74.07-74.27Zm-8.92 65.36v74.27h-56.4V328.96h56.4v56.46Zm8.92-56.46a65.23 65.23 0 0 1 64.6 56.46h-64.6v-56.46Zm-111.9 65.37a59 59 0 0 0-.71-9.8v-64.47H487.6c-40.87 0-74.06 33.3-74.06 74.27 0 40.96 33.2 74.27 74.06 74.27h73.53v-64.65c.36-3.2.71-6.41.71-9.62Zm-9.63-36.51a74.66 74.66 0 0 0-29.27-28.86h29.27v28.87-.01Zm-129.75 36.51c0-35.98 29.27-65.37 65.14-65.37 35.87 0 65.14 29.21 65.14 65.37 0 35.98-29.27 65.36-65.14 65.36-35.87 0-65.14-29.38-65.14-65.36Zm129.75 65.19h-29.27a73.54 73.54 0 0 0 29.27-28.86v28.86ZM318.95 320.05V231H244v236.88h64.79c3.03.36 6.06.53 9.28.53 40.87 0 74.06-33.3 74.06-74.27a74.12 74.12 0 0 0-73.18-74.1v.01Zm-8.92-80.14v80.68a73.9 73.9 0 0 0-57.1 38.47V239.9h57.1Zm-57.1 189.68a75.12 75.12 0 0 0 28.9 29.38h-28.9V429.6Zm65.13 29.92c-35.86 0-65.13-29.21-65.13-65.19 0-36.15 29.27-65.37 65.13-65.37 35.88 0 65.15 29.21 65.15 65.37.18 35.98-29.1 65.19-65.14 65.19Z"/></svg>